#Comment line ignore any data following # character 
#Hierarchical Translation and Rotation (.htr) file 
[Header]	
#Header keywords are followed by a single value 
FileType HTR		#Single word string
DataType HTRS		#Translation followed by rotation and scale data
FileVersion 1		#integer
NumSegments 64		#integer
NumFrames 2		#integer
DataFrameRate 30		#integer, data frame rate in this file
EulerRotationOrder ZYX
CalibrationUnits mm
RotationUnits Degrees
GlobalAxisofGravity Y
BoneLengthAxis Y
ScaleFactor 1.00
[SegmentNames&Hierarchy]
#CHILD	PARENT
Pinger_Root GLOBAL
Pelvis Pinger_Root
L_Hip Pelvis
R_Hip Pelvis
Rear_Leg01 Pelvis
Spine1 Pelvis
L_Leg01 L_Hip
L_Leg02 L_Leg01
L_Leg03 L_Leg02
L_Foot L_Leg03
L_Toe1_01 L_Foot
L_Toe2_01 L_Foot
L_Toe3_01 L_Foot
planeAlignerLeft L_Foot
L_Toe1_02 L_Toe1_01
L_Toe1_03 L_Toe1_02
L_Toe2_02 L_Toe2_01
L_Toe2_03 L_Toe2_02
L_Toe3_02 L_Toe3_01
L_Toe3_03 L_Toe3_02
planeLockWeightLeft planeAlignerLeft
R_Leg01 R_Hip
R_Leg02 R_Leg01
R_Leg03 R_Leg02
R_Foot R_Leg03
planeAlignerRight R_Foot
R_Toe1_01 R_Foot
R_Toe2_01 R_Foot
R_Toe3_01 R_Foot
planeLockWeightRight planeAlignerRight
R_Toe1_02 R_Toe1_01
R_Toe1_03 R_Toe1_02
R_Toe2_02 R_Toe2_01
R_Toe2_03 R_Toe2_02
R_Toe3_02 R_Toe3_01
R_Toe3_03 R_Toe3_02
Rear_Leg02 Rear_Leg01
Rear_Leg03 Rear_Leg02
Rear_Leg04 Rear_Leg03
Rear_Foot Rear_Leg04
planeAlignerCenter Rear_Foot
Rear_Toe1_01 Rear_Foot
Rear_Toe2_01 Rear_Foot
Rear_Toe3_01 Rear_Foot
planeLockWeightCenter planeAlignerCenter
Rear_Toe1_02 Rear_Toe1_01
Rear_Toe1_03 Rear_Toe1_02
Rear_Toe2_02 Rear_Toe2_01
Rear_Toe2_03 Rear_Toe2_02
Rear_Toe3_02 Rear_Toe3_01
Rear_Toe3_03 Rear_Toe3_02
Back_Bone Spine1
Head Spine1
Motor_Bone Back_Bone
Ping_Mechanism Back_Bone
BN_LookIK Head
bottomMouth Head
L_Mouth01 Head
L_mouthFront Head
mouthGun Head
R_Mouth01 Head
R_mouthFront Head
TopMouth Head
weapon_bone Head
[BasePosition]
#SegmentName Tx, Ty, Tz, Rx, Ry, Rz, BoneLength
Pinger_Root 0.000000 0.000000 0.000000 -90.000000 0.000000 0.000000 10.000000 
Pelvis 0.000000 0.000000 0.000000 0.000000 0.000000 0.000000 10.000000 
L_Hip 0.000000 0.000000 0.000000 0.000000 0.000000 0.000000 10.000000 
R_Hip 0.000000 0.000000 0.000000 0.000000 0.000000 0.000000 10.000000 
Rear_Leg01 0.000000 0.000000 0.000000 0.000000 0.000000 0.000000 10.000000 
Spine1 0.000000 0.000000 0.000000 0.000000 0.000000 0.000000 10.000000 
L_Leg01 0.000000 0.000000 0.000000 0.000000 0.000000 0.000000 10.000000 
L_Leg02 0.000000 0.000000 0.000000 0.000000 0.000000 0.000000 10.000000 
L_Leg03 0.000000 0.000000 0.000000 0.000000 0.000000 0.000000 10.000000 
L_Foot 0.000000 0.000000 0.000000 0.000000 0.000000 0.000000 10.000000 
L_Toe1_01 0.000000 0.000000 0.000000 0.000000 0.000000 0.000000 10.000000 
L_Toe2_01 0.000000 0.000000 0.000000 0.000000 0.000000 0.000000 10.000000 
L_Toe3_01 0.000000 0.000000 0.000000 0.000000 0.000000 0.000000 10.000000 
planeAlignerLeft 0.000000 0.000000 0.000000 0.000000 0.000000 0.000000 10.000000 
L_Toe1_02 0.000000 0.000000 0.000000 0.000000 0.000000 0.000000 10.000000 
L_Toe1_03 0.000000 0.000000 0.000000 0.000000 0.000000 0.000000 10.000000 
L_Toe2_02 0.000000 0.000000 0.000000 0.000000 0.000000 0.000000 10.000000 
L_Toe2_03 0.000000 0.000000 0.000000 0.000000 0.000000 0.000000 10.000000 
L_Toe3_02 0.000000 0.000000 0.000000 0.000000 0.000000 0.000000 10.000000 
L_Toe3_03 0.000000 0.000000 0.000000 0.000000 0.000000 0.000000 10.000000 
planeLockWeightLeft 0.000000 0.000000 0.000000 0.000000 0.000000 0.000000 10.000000 
R_Leg01 0.000000 0.000000 0.000000 0.000000 0.000000 0.000000 10.000000 
R_Leg02 0.000000 0.000000 0.000000 0.000000 0.000000 0.000000 10.000000 
R_Leg03 0.000000 0.000000 0.000000 0.000000 0.000000 0.000000 10.000000 
R_Foot 0.000000 0.000000 0.000000 0.000000 0.000000 0.000000 10.000000 
planeAlignerRight 0.000000 0.000000 0.000000 0.000000 0.000000 0.000000 10.000000 
R_Toe1_01 0.000000 0.000000 0.000000 0.000000 0.000000 0.000000 10.000000 
R_Toe2_01 0.000000 0.000000 0.000000 0.000000 0.000000 0.000000 10.000000 
R_Toe3_01 0.000000 0.000000 0.000000 0.000000 0.000000 0.000000 10.000000 
planeLockWeightRight 0.000000 0.000000 0.000000 0.000000 0.000000 0.000000 10.000000 
R_Toe1_02 0.000000 0.000000 0.000000 0.000000 0.000000 0.000000 10.000000 
R_Toe1_03 0.000000 0.000000 0.000000 0.000000 0.000000 0.000000 10.000000 
R_Toe2_02 0.000000 0.000000 0.000000 0.000000 0.000000 0.000000 10.000000 
R_Toe2_03 0.000000 0.000000 0.000000 0.000000 0.000000 0.000000 10.000000 
R_Toe3_02 0.000000 0.000000 0.000000 0.000000 0.000000 0.000000 10.000000 
R_Toe3_03 0.000000 0.000000 0.000000 0.000000 0.000000 0.000000 10.000000 
Rear_Leg02 0.000000 0.000000 0.000000 0.000000 0.000000 0.000000 10.000000 
Rear_Leg03 0.000000 0.000000 0.000000 0.000000 0.000000 0.000000 10.000000 
Rear_Leg04 0.000000 0.000000 0.000000 0.000000 0.000000 0.000000 10.000000 
Rear_Foot 0.000000 0.000000 0.000000 0.000000 0.000000 0.000000 10.000000 
planeAlignerCenter 0.000000 0.000000 0.000000 0.000000 0.000000 0.000000 10.000000 
Rear_Toe1_01 0.000000 0.000000 0.000000 0.000000 0.000000 0.000000 10.000000 
Rear_Toe2_01 0.000000 0.000000 0.000000 0.000000 0.000000 0.000000 10.000000 
Rear_Toe3_01 0.000000 0.000000 0.000000 0.000000 0.000000 0.000000 10.000000 
planeLockWeightCenter 0.000000 0.000000 0.000000 0.000000 0.000000 0.000000 10.000000 
Rear_Toe1_02 0.000000 0.000000 0.000000 0.000000 0.000000 0.000000 10.000000 
Rear_Toe1_03 0.000000 0.000000 0.000000 0.000000 0.000000 0.000000 10.000000 
Rear_Toe2_02 0.000000 0.000000 0.000000 0.000000 0.000000 0.000000 10.000000 
Rear_Toe2_03 0.000000 0.000000 0.000000 0.000000 0.000000 0.000000 10.000000 
Rear_Toe3_02 0.000000 0.000000 0.000000 0.000000 0.000000 0.000000 10.000000 
Rear_Toe3_03 0.000000 0.000000 0.000000 0.000000 0.000000 0.000000 10.000000 
Back_Bone 0.000000 0.000000 0.000000 0.000000 0.000000 0.000000 10.000000 
Head 0.000000 0.000000 0.000000 0.000000 0.000000 0.000000 10.000000 
Motor_Bone 0.000000 0.000000 0.000000 0.000000 0.000000 0.000000 10.000000 
Ping_Mechanism 0.000000 0.000000 0.000000 0.000000 0.000000 0.000000 10.000000 
BN_LookIK 0.000000 0.000000 0.000000 0.000000 0.000000 0.000000 10.000000 
bottomMouth 0.000000 0.000000 0.000000 0.000000 0.000000 0.000000 10.000000 
L_Mouth01 0.000000 0.000000 0.000000 0.000000 0.000000 0.000000 10.000000 
L_mouthFront 0.000000 0.000000 0.000000 0.000000 0.000000 0.000000 10.000000 
mouthGun 0.000000 0.000000 0.000000 0.000000 0.000000 0.000000 10.000000 
R_Mouth01 0.000000 0.000000 0.000000 0.000000 0.000000 0.000000 10.000000 
R_mouthFront 0.000000 0.000000 0.000000 0.000000 0.000000 0.000000 10.000000 
TopMouth 0.000000 0.000000 0.000000 0.000000 0.000000 0.000000 10.000000 
weapon_bone 0.000000 0.000000 0.000000 0.000000 0.000000 0.000000 10.000000 
#Beginning of Data. Separated by tabs
#Fr	Tx	Ty	Tz	Rx	Ry	Rz	SF
[Pinger_Root]
21 0.000000 0.000000 0.000000 -0.000075 -0.000000 -0.000020 0.000000
22 0.000000 0.000000 0.000000 -0.000075 -0.000000 -0.000020 0.000000
[Pelvis]
21 145.607590 1429.514526 3563.872803 -97.657097 -80.907959 89.537048 3842.642822
22 163.014008 1346.959595 3641.454590 -108.633041 -81.071236 100.956963 3886.009033
[L_Hip]
21 5.766392 125.831482 872.656799 -168.327133 -51.372181 90.864601 881.701050
22 5.766392 125.831482 872.656799 -172.617996 -50.312061 93.412048 881.701050
[R_Hip]
21 5.765438 125.836372 -872.654907 -93.899895 79.584816 -31.878473 881.699829
22 5.765438 125.836372 -872.654907 -98.881287 86.265869 -35.296803 881.699829
[Rear_Leg01]
21 -192.298416 -925.602966 -0.001907 170.076920 5.408833 -135.814621 945.367432
22 -192.298416 -925.602966 -0.001907 168.788574 3.459918 -136.599976 945.367432
[Spine1]
21 290.604584 5.007505 0.000477 4.357990 -5.007561 28.398903 290.647736
22 290.604584 5.007505 0.000477 5.346095 -2.943329 27.785717 290.647736
[L_Leg01]
21 761.932007 -0.002384 -0.069261 41.709377 -14.019858 -41.484520 761.932068
22 761.932007 -0.002384 -0.069261 40.708504 -11.653125 -37.321663 761.932068
[L_Leg02]
21 1441.140503 -0.000954 -0.000715 7.572616 3.359933 -131.342056 1441.140503
22 1441.140503 -0.000954 -0.000715 7.307038 2.936502 -132.095566 1441.140503
[L_Leg03]
21 1686.963989 -0.000715 -0.000954 -0.128263 0.081880 144.558899 1686.963989
22 1686.963989 -0.000715 -0.000954 -0.123122 0.076983 142.977005 1686.963989
[L_Foot]
21 3041.570068 -30.715107 11.297464 -6.579507 32.806416 49.850754 3041.746094
22 3041.570068 -30.715107 11.297464 -6.214097 29.983940 49.624607 3041.746094
[L_Toe1_01]
21 -188.216690 -224.732346 -21.137953 94.107414 -1.824326 -179.385300 293.899567
22 -188.216690 -224.732346 -21.137953 94.075935 -2.369863 -178.707611 293.899567
[L_Toe2_01]
21 200.746536 -219.926590 148.838394 -97.824593 -27.841702 -34.990070 332.896027
22 200.746536 -219.926590 148.838394 -96.833107 -27.725245 -37.072136 332.896027
[L_Toe3_01]
21 188.832520 -219.859131 -191.078659 -99.850578 28.647554 -64.477310 347.140900
22 188.832520 -219.859131 -191.078659 -99.834084 26.579908 -64.154198 347.140900
[planeAlignerLeft]
21 0.812531 -811.448792 -0.314951 0.000000 -90.000000 -90.001900 811.449280
22 0.812531 -811.448792 -0.314951 0.000000 -90.000000 -90.001900 811.449280
[L_Toe1_02]
21 413.761139 0.000477 0.000000 0.001661 0.070897 0.001661 413.761139
22 413.761139 0.000477 0.000000 0.001661 0.070897 0.001661 413.761139
[L_Toe1_03]
21 464.317322 0.000358 -0.000089 0.001673 -0.448396 -0.003292 464.317322
22 464.317322 0.000358 -0.000089 0.001673 -0.448396 -0.003292 464.317322
[L_Toe2_02]
21 342.235809 -0.000477 0.000238 0.004684 -81.204269 0.004684 342.235809
22 342.235809 -0.000477 0.000238 0.004684 -81.201454 0.004684 342.235809
[L_Toe2_03]
21 420.210846 -0.000715 0.000000 179.993195 44.174484 -179.999222 420.210846
22 420.210846 -0.000715 0.000000 179.992905 49.260464 -179.999634 420.210846
[L_Toe3_02]
21 329.270111 0.000954 0.000000 0.004675 -84.720100 0.004675 329.270111
22 329.270111 0.000954 0.000000 0.004676 -84.549683 0.004676 329.270111
[L_Toe3_03]
21 439.137451 -0.001907 0.000954 179.993027 47.233730 -179.999466 439.137451
22 439.137451 -0.001907 0.000954 179.992844 49.936012 -179.999710 439.137451
[planeLockWeightLeft]
21 -0.000954 0.000238 -0.000305 -0.011826 -0.004376 0.005620 0.001029
22 -0.000954 0.000238 -0.000305 -0.011826 -0.004376 0.005620 0.001029
[R_Leg01]
21 761.455627 -0.001907 -0.000358 100.461731 14.523221 84.758049 761.455688
22 761.455627 -0.001907 -0.000358 99.116188 13.348346 80.150948 761.455688
[R_Leg02]
21 1441.140625 0.000000 -0.000238 -2.372577 -0.843705 -91.269875 1441.140625
22 1441.140625 0.000000 -0.000238 -2.241385 -0.713849 -90.073784 1441.140625
[R_Leg03]
21 1686.963989 0.000954 0.001431 0.121192 -0.075753 142.783966 1686.963989
22 1686.963989 0.000954 0.001431 0.115726 -0.071366 141.513489 1686.963989
[R_Foot]
21 3041.560059 -30.531288 -11.204481 -5.060033 -11.593419 40.582104 3041.734131
22 3041.560059 -30.531288 -11.204481 -5.434300 -14.405800 40.437611 3041.734131
[planeAlignerRight]
21 -0.635147 -812.270569 -0.364304 0.000000 -89.960434 -90.005180 812.270874
22 -0.635147 -812.270569 -0.364304 0.000000 -89.960434 -90.005180 812.270874
[R_Toe1_01]
21 -188.383347 -224.864899 21.052242 77.323616 -4.364301 -175.380066 294.101532
22 -188.383347 -224.864899 21.052242 77.323631 -4.364020 -175.380417 294.101532
[R_Toe2_01]
21 200.637817 -220.002121 -148.787384 -84.724457 32.131763 -46.480873 332.857574
22 200.637817 -220.002121 -148.787384 -84.724457 32.131763 -46.480873 332.857574
[R_Toe3_01]
21 188.606735 -220.092957 191.126343 -71.128609 -17.493332 -68.411148 347.192566
22 188.606735 -220.092957 191.126343 -71.127335 -17.496967 -68.413803 347.192566
[planeLockWeightRight]
21 -0.000477 0.000000 0.000000 -0.011823 -0.004379 -0.000027 0.000477
22 -0.000477 0.000000 0.000000 -0.011823 -0.004379 -0.000027 0.000477
[R_Toe1_02]
21 413.762085 0.000477 -0.000119 0.001385 -25.822184 0.001385 413.762085
22 413.762085 0.000477 -0.000119 0.001385 -25.818003 0.001385 413.762085
[R_Toe1_03]
21 464.317810 0.000000 0.001088 0.004309 58.392216 0.004309 464.317810
22 464.317810 0.000000 0.001088 0.004309 58.392216 0.004309 464.317810
[R_Toe2_02]
21 342.234741 -0.000954 0.000238 -0.002336 -78.157593 -0.002336 342.234741
22 342.234741 -0.000954 0.000238 -0.002336 -78.157211 -0.002336 342.234741
[R_Toe2_03]
21 420.210846 0.000715 -0.000268 -179.993973 74.507607 -179.997513 420.210846
22 420.210846 0.000715 -0.000268 -179.993973 74.507942 -179.997513 420.210846
[R_Toe3_02]
21 329.270355 -0.000477 -0.000954 0.001177 -80.759201 0.001177 329.270355
22 329.270355 -0.000477 -0.000954 0.001177 -80.759201 0.001177 329.270355
[R_Toe3_03]
21 439.137939 0.000238 0.001431 -179.996521 77.412750 -179.992996 439.137939
22 439.137939 0.000238 0.001431 -179.996521 77.413078 -179.992996 439.137939
[Rear_Leg02]
21 1162.777710 -0.029802 0.005960 -3.608771 9.316209 -111.385551 1162.777710
22 1162.777710 -0.029802 0.005960 -3.330387 7.768339 -113.416245 1162.777710
[Rear_Leg03]
21 607.192505 -0.013351 -0.073195 0.010489 -0.005112 68.315468 607.192505
22 607.192505 -0.013351 -0.073195 0.010458 -0.005176 69.022217 607.192505
[Rear_Leg04]
21 995.874512 -0.020504 -0.011921 -0.040090 -0.019021 66.596916 995.874573
22 995.874512 -0.020504 -0.011921 -0.040347 -0.018470 68.166138 995.874573
[Rear_Foot]
21 3096.176270 -0.067472 -0.041425 68.114777 81.958366 -94.268188 3096.176270
22 3096.176270 -0.067472 -0.041425 77.034325 83.393784 -86.889252 3096.176270
[planeAlignerCenter]
21 0.350077 0.966311 -838.790894 0.000009 0.000003 -179.999985 838.791565
22 0.350077 0.966311 -838.790894 0.000009 0.000003 -179.999985 838.791565
[Rear_Toe1_01]
21 0.653352 83.966492 -371.173737 0.307339 40.762825 90.438896 380.553192
22 0.653352 83.966492 -371.173737 0.288091 41.914127 90.413170 380.553192
[Rear_Toe2_01]
21 178.200760 -294.826019 -362.060547 -7.360513 33.563549 -66.566887 499.765686
22 178.200760 -294.826019 -362.060547 -7.196267 34.406261 -66.271294 499.765686
[Rear_Toe3_01]
21 -153.359680 -308.780914 -362.060852 3.381188 32.649464 -112.332199 499.952881
22 -153.359680 -308.780914 -362.060852 3.289418 33.518005 -112.540970 499.952881
[planeLockWeightCenter]
21 -0.000062 0.000238 0.000000 -0.011814 -0.004373 -0.000015 0.000246
22 -0.000062 0.000238 0.000000 -0.011814 -0.004373 -0.000015 0.000246
[Rear_Toe1_02]
21 379.707825 0.194073 0.000477 -0.000297 -32.428005 0.006965 379.707855
22 379.707825 0.194073 0.000477 -0.000242 -31.681877 0.006934 379.707855
[Rear_Toe1_03]
21 500.129700 0.165701 0.000119 0.000400 56.340111 0.007707 500.129761
22 500.129700 0.165701 0.000119 -0.000103 51.907963 0.007296 500.129761
[Rear_Toe2_02]
21 340.494507 0.000238 -0.000954 0.001193 -69.144257 0.001193 340.494507
22 340.494507 0.000238 -0.000954 0.001192 -69.854523 0.001192 340.494507
[Rear_Toe2_03]
21 433.103577 0.000000 0.000238 0.006364 68.746376 0.006364 433.103546
22 433.103577 0.000000 0.000238 0.006696 69.810326 0.006696 433.103546
[Rear_Toe3_02]
21 340.494141 -0.000358 -0.000477 0.007962 -66.397774 -0.009136 340.494171
22 340.494141 -0.000358 -0.000477 0.008288 -67.274704 -0.009460 340.494171
[Rear_Toe3_03]
21 433.103577 0.001431 -0.000238 -0.000833 64.701775 -0.004416 433.103546
22 433.103577 0.001431 -0.000238 -0.000972 65.958984 -0.004547 433.103546
[Back_Bone]
21 1312.175781 -701.934692 0.000954 -1.263396 4.257707 -91.691994 1488.125488
22 1312.175781 -701.934692 0.000954 -1.829198 5.014304 -93.224846 1488.125488
[Head]
21 1406.159424 809.709290 0.001431 -0.675460 -1.433429 35.515228 1622.625488
22 1406.159424 809.709290 0.001431 -0.642201 -1.342252 34.445614 1622.625488
[Motor_Bone]
21 1158.364380 -417.834747 0.000477 1.526075 0.066739 -124.904861 1231.419434
22 1158.364380 -417.834747 0.000477 2.137811 3.726242 -124.592827 1231.419434
[Ping_Mechanism]
21 1254.775635 -456.784332 2.106815 0.000103 -0.000053 82.120995 1335.334473
22 1255.560913 -454.242676 -6.502332 0.000103 -0.000053 82.120995 1335.219727
[BN_LookIK]
21 193.241119 1380.371704 -0.002861 0.000000 89.965736 -31.038179 1393.832153
22 193.241119 1380.371704 -0.002861 0.000000 89.965736 -31.038179 1393.832153
[bottomMouth]
21 -435.092926 615.759399 -0.000954 -0.000022 0.000016 73.527184 753.966492
22 -435.092926 615.759399 -0.000954 -0.000022 0.000016 73.527184 753.966492
[L_Mouth01]
21 554.440979 7.658243 838.222046 150.204178 23.759130 109.605339 1005.027161
22 554.440979 7.658243 838.222046 150.204178 23.759130 109.605339 1005.027161
[L_mouthFront]
21 551.629089 934.514771 339.150421 0.000081 2.804060 79.119301 1136.941284
22 551.629089 934.514771 339.150421 0.000081 2.804060 79.119301 1136.941284
[mouthGun]
21 55.332661 1627.420898 0.000000 0.000023 0.000009 -11.038128 1628.361328
22 55.332661 1627.420898 0.000000 0.000023 0.000009 -11.038128 1628.361328
[R_Mouth01]
21 554.442383 7.659197 -838.223938 29.795891 -23.759109 109.605331 1005.029541
22 554.442383 7.659197 -838.223938 29.795891 -23.759109 109.605331 1005.029541
[R_mouthFront]
21 551.629089 934.514282 -339.151367 0.000029 -2.803930 79.119133 1136.941162
22 551.629089 934.514282 -339.151367 0.000029 -2.803930 79.119133 1136.941162
[TopMouth]
21 461.269867 -56.106091 -0.008583 -0.000059 -0.000268 92.025169 464.669525
22 461.269867 -56.106091 -0.008583 -0.000059 -0.000268 92.025169 464.669525
[weapon_bone]
21 -987.239868 1448.372803 0.001431 0.000000 89.965736 -31.038221 1752.833740
22 -987.239868 1448.372803 0.001431 0.000000 89.965736 -31.038221 1752.833740
